<?xml version="1.0" encoding="utf-8"?>
<!-- Generator: Adobe Illustrator 28.0.0, SVG Export Plug-In . SVG Version: 6.00 Build 0)  -->
<svg version="1.1" id="Capa_1" xmlns="http://www.w3.org/2000/svg" xmlns:xlink="http://www.w3.org/1999/xlink" x="0px" y="0px"
	 viewBox="0 0 395.2 187.1" style="enable-background:new 0 0 395.2 187.1;" xml:space="preserve">
<style type="text/css">
	.st0{fill:url(#SVGID_1_);}
	.st1{fill:#F8AD44;}
	.st2{fill:url(#SVGID_00000058564446839930285150000014256794925280215437_);}
	.st3{fill:#FFFFFF;}
	.st4{fill:url(#SVGID_00000061440491484726919430000017706398334142343299_);}
	.st5{fill:url(#SVGID_00000122002031424685594180000017414270516170200757_);}
	.st6{fill:#EFEFEF;}
	.st7{fill-rule:evenodd;clip-rule:evenodd;fill:#EFEFEF;}
	.st8{fill:url(#SVGID_00000000930532836955159170000014837291841878911877_);}
	.st9{fill:#666666;}
	.st10{fill-rule:evenodd;clip-rule:evenodd;fill:#666666;}
</style>
<g>
	<g id="dégradé_00000162334047461543288670000013367442558117895079_">
		<g>
			
				<linearGradient id="SVGID_1_" gradientUnits="userSpaceOnUse" x1="1.322" y1="-1732.0106" x2="393.9181" y2="-1732.0106" gradientTransform="matrix(1 0 0 -1 0 -1663.4117)">
				<stop  offset="0" style="stop-color:#E84A26"/>
				<stop  offset="0.5" style="stop-color:#DA0B33"/>
				<stop  offset="1" style="stop-color:#AD1164"/>
			</linearGradient>
			<path class="st0" d="M393.9,85.2C393.9,85.2,393.9,85.2,393.9,85.2v-1.1l0,0c-0.6-27.4-24.1-49.2-52-47.1
				c-23.7,1.8-42.8,21-44.4,44.7c-2,28.2,20.4,51.8,48.2,51.8c11.2,0,21.5-3.8,29.7-10.3l-0.1,11.9c0,1.8,2.2,2.7,3.4,1.4l10.5-10.4
				c3-3,4.8-7.1,4.7-11.4L393.9,85.2C393.9,85.3,393.9,85.3,393.9,85.2z M345.2,115.7c-16.6,0-30.1-13.5-30.1-30.1
				s13.5-30.1,30.1-30.1s30.1,13.5,30.1,30.1C375.3,102.2,361.8,115.7,345.2,115.7z M19.8,39v92.5H1.3V60.5c0-4.9,1.9-9.6,5.4-13.1
				l9.7-9.8C17.7,36.3,19.8,37.2,19.8,39z M1.3,28.6l0-26.2C1.3,1.1,2.4,0,3.7,0h13.7c1.3,0,2.4,1.1,2.4,2.4l0,9
				c0,3.2-1.3,6.3-3.5,8.5L5.8,30.4C4.1,32.1,1.3,30.9,1.3,28.6z M88.8,37.1C75.9,36,63.9,39.9,54.6,47.2L54.7,2
				c0-1.8-2.2-2.7-3.4-1.4L40.8,11c-3,3-4.8,7.1-4.7,11.4l0.1,62.7v0c0,0,0,0,0,0v1l0,0c0.5,26.1,22,47.2,48.3,47.2
				c27.8,0,50.1-23.5,48.2-51.7C130.9,58.3,112.2,39.2,88.8,37.1z M84.7,114.9c-16.6,0-30.1-13.5-30.1-30.1s13.5-30.1,30.1-30.1
				s30.1,13.5,30.1,30.1S101.3,114.9,84.7,114.9z M258.7,85.2L303.9,40c1.2-1.2,0.4-3.3-1.4-3.3h-16.9c-2.6,0-5.1,1-6.9,2.9
				l-32.8,32.8l-7.1-6.7c-1.1-1.1-3-1.1-4.1,0.1l-8.7,8.7c-1.2,1.2-1.1,3.1,0.1,4.2l7,6.6l-19.6,19.6l0,0
				c-5.2,4.3-15.2,10.2-22.4,10.2c-4.4,0-8.6-1-12.3-2.7c0,0,39.1-39.6,50.2-50.9c1.5-1.6,1.6-4.1,0-5.6
				c-11.4-11.7-25.2-18.7-38.3-18.7c-26.6,0-48.2,21.6-48.2,48.2c0,26.6,21.6,48.2,48.2,48.2c12.4,0,23.3-4.1,36.8-17l18.4-18.4
				l30.6,30.6c1.8,1.8,4.3,2.9,6.9,2.9h16.9c1.7,0,2.6-2.1,1.4-3.3L258.7,85.2z M160.9,84.5c0.2-16.2,13.6-29.5,29.8-29.7
				c6.1-0.1,11.7,1.7,16.5,4.8l-41.5,41.5C162.6,96.3,160.9,90.6,160.9,84.5z"/>
		</g>
	</g>
	<g>
		<path class="st6" d="M299.7,150.7c5.9,0,10.7,4.8,10.7,10.8c0,1.5-0.3,2.9-0.8,4.1h3.5v3.2l-7.7,0c-0.7,0-1.5-0.3-2.1-0.9
			l-4.4-4.5c-0.2-0.2-0.4-0.2-0.6-0.2h-2.6V160l3.3,0c0.7,0,1.5,0.3,2.1,0.9l4.5,4.5c0.1,0.1,0.3,0.1,0.4-0.1
			c0.7-1.1,1.1-2.4,1.1-3.9c0-4-3.2-7.3-7.3-7.3s-7.3,3.3-7.3,7.3c0,4,3.3,7.3,7.3,7.3v3.5c-5.9,0-10.7-4.8-10.7-10.8
			C289,155.5,293.8,150.7,299.7,150.7z"/>
		<path class="st7" d="M245.1,170.8c1.1,0.5,2.3,0.7,3.7,0.7c1.3,0,2.5-0.2,3.6-0.7c1.1-0.5,2.1-1.2,2.9-2c0.8-0.9,1.5-1.9,2-3
			c0.5-1.2,0.7-2.4,0.7-3.7c0-1.3-0.2-2.6-0.7-3.7c-0.5-1.2-1.1-2.2-2-3s-1.8-1.5-3-2c-1.1-0.5-2.3-0.7-3.6-0.7
			c-1.3,0-2.5,0.2-3.6,0.7c-1.1,0.5-2.1,1.2-2.9,2c-0.8,0.9-1.5,1.9-2,3s-0.7,2.4-0.7,3.7c0,1.3,0.2,2.6,0.7,3.7
			c0.5,1.1,1.1,2.2,2,3C243,169.7,244,170.3,245.1,170.8z M252.4,168.7c-1.1,0.7-2.3,1-3.7,1c-1,0-2-0.2-2.9-0.6
			c-0.9-0.4-1.6-0.9-2.3-1.6c-0.6-0.7-1.1-1.5-1.5-2.4c-0.4-0.9-0.5-1.9-0.5-3c0-1.5,0.3-2.8,0.9-3.9c0.6-1.1,1.5-2,2.6-2.7
			c1.1-0.7,2.3-1,3.7-1c1.1,0,2,0.2,2.9,0.6c0.9,0.4,1.6,0.9,2.3,1.6c0.6,0.7,1.1,1.5,1.5,2.4c0.4,0.9,0.5,1.9,0.5,3
			c0,1.5-0.3,2.8-0.9,3.9C254.4,167.1,253.5,168,252.4,168.7z"/>
		<path class="st7" d="M158.1,171.3v-7.4h4.9c1.1,0,2.1-0.2,3-0.7c0.9-0.5,1.6-1.1,2.1-1.9c0.5-0.8,0.8-1.8,0.8-2.9
			c0-1.1-0.3-2.1-0.8-2.9c-0.5-0.8-1.2-1.5-2.1-1.9c-0.9-0.5-1.9-0.7-3-0.7h-6.9v18.5H158.1z M162.9,162.1h-4.8v-7.6h4.8
			c0.8,0,1.4,0.2,2,0.5c0.6,0.3,1.1,0.7,1.4,1.3c0.4,0.6,0.5,1.2,0.5,2c0,0.8-0.2,1.5-0.5,2c-0.3,0.6-0.8,1-1.4,1.3
			C164.3,162,163.6,162.1,162.9,162.1z"/>
		<path class="st7" d="M172,171.3l7.6-18.5h1.5l7.5,18.5h-2.1l-1.9-4.8h-8.5l-1.9,4.8H172z M180.3,155.9l3.5,8.8h-7.1L180.3,155.9z"
			/>
		<path class="st7" d="M196.4,163v8.3h-2v-18.5h6.6c1.2,0,2.2,0.2,3.1,0.7c0.9,0.4,1.5,1,2,1.8c0.5,0.8,0.7,1.6,0.7,2.6
			c0,1-0.2,1.9-0.7,2.7c-0.4,0.8-1.1,1.4-2,1.8c-0.8,0.4-1.8,0.6-2.8,0.6l6.8,8.3h-2.5l-6.7-8.3H196.4z M196.4,161.3h4.7
			c1.2,0,2.2-0.3,2.8-0.9c0.6-0.6,1-1.5,1-2.5c0-1-0.3-1.8-1-2.4c-0.6-0.6-1.6-1-2.8-1h-4.7V161.3z"/>
		<path class="st6" d="M217.8,171.3v-16.7h-6.5v-1.8h15v1.8h-6.5v16.7H217.8z"/>
		<path class="st6" d="M264.5,152.8h11.7v1.8h-9.7v6.5h9.3v1.8h-9.3v8.4h-2V152.8z"/>
		<path class="st6" d="M344,160.5h3.2v-3.2H363v3.2h3.2v-6.4H344V160.5z"/>
		<path class="st6" d="M387.6,154.1h6.3v3.2h-3.2h-3.2V154.1z"/>
		<path class="st6" d="M390.8,157.3v8.2h3.2v3.2h-6.3v-8.2L390.8,157.3z"/>
		<path class="st6" d="M356.7,159.2h-3.2v6.4h-3.2v3.2h9.5v-3.2h-3.2V159.2z"/>
		<path class="st6" d="M319.4,165.5h-3.2v3.2h6.3v-8.2l-3.2-3.2h2.4c0.2,0,0.4,0.1,0.6,0.2l10.2,10.3c0.6,0.6,1.3,0.9,2.1,0.9l6.2,0
			v-3.2h-3.2v-8.2h3.2v-3.2h-6.3v8.2l3.2,3.2h-2.3c-0.2,0-0.4-0.1-0.6-0.2L324.5,155c-0.6-0.6-1.3-0.9-2.1-0.9l-6.2,0v3.2h3.2V165.5
			z"/>
		<path class="st6" d="M369.3,165.5h3.2v-8.2l3.2,3.2v8.2h-6.3V165.5z"/>
		<path class="st6" d="M374.9,157.3h-2.3h-3.2v-3.2l6.2,0c0.7,0,1.5,0.3,2.1,0.9l7.7,7.8l-2.3,2.3l-7.5-7.6
			C375.3,157.4,375.1,157.3,374.9,157.3z"/>
	</g>
</g>
</svg>
